<?xml version="1.0" encoding="UTF-8" standalone="no"?>
<!DOCTYPE svg PUBLIC "-//W3C//DTD SVG 1.1//EN" "http://www.w3.org/Graphics/SVG/1.1/DTD/svg11.dtd">
<svg width="100%" height="100%" viewBox="0 0 1920 1080" version="1.1" xmlns="http://www.w3.org/2000/svg" xmlns:xlink="http://www.w3.org/1999/xlink" xml:space="preserve" xmlns:serif="http://www.serif.com/" style="fill-rule:evenodd;clip-rule:evenodd;stroke-linejoin:round;stroke-miterlimit:2;">
    <rect x="150" y="0" width="1620" height="1080" style="fill:url(#_Linear1);"/>
    <g transform="matrix(1.37651,0,0,1.37651,83.6107,-486.763)">
        <text x="1050.73px" y="861.377px" style="font-family:'ArialMT', 'Arial', sans-serif;font-size:144px;fill:white;">5</text>
    </g>
    <g>
        <g>
            <path d="M318,641.3C298.8,641.3 284.7,656 284.7,676.1C284.7,696.2 298.5,710.9 317.5,710.9C337.2,710.9 350.8,696.6 350.8,676.1C350.8,655.6 337.5,641.3 318,641.3Z" style="fill:white;fill-rule:nonzero;"/>
            <path d="M589.6,518C589.6,554.9 590,587.8 592.4,621.9C579.4,596.4 564.5,570.3 547,542.6L444.8,381.5L392.3,381.5L392.3,705.9L441.3,705.9L441.3,566.4C441.3,523.8 440.7,491.2 439.1,459.5C451.6,484.1 467.6,511.6 487.9,544.2L589,706L638.5,706L638.5,381L589.5,381L589.5,518L589.6,518Z" style="fill:white;fill-rule:nonzero;"/>
            <path d="M749.8,558.6L871.8,558.6L871.8,514.3L749.8,514.3L749.8,426.2L878.8,426.2L878.8,381L698.6,381L698.6,705.9L885.7,705.9L885.7,660.8L749.8,660.8L749.8,558.6Z" style="fill:white;fill-rule:nonzero;"/>
            <path d="M899.1,381L899.1,426.4L994.6,426.4L994.6,705.9L1046.4,705.9L1046.4,426.4L1142.3,426.4L1142.3,381L899.1,381Z" style="fill:white;fill-rule:nonzero;"/>
        </g>
        <g>
            <path d="M1326.6,517.1C1319.9,520.6 1306.3,523.8 1289,523.8C1248.8,523.8 1218.6,498.3 1218.6,451.7C1218.6,407 1248.8,376.7 1293.1,376.7C1310.8,376.7 1322,380.6 1327,383L1322.5,398.1C1315.6,394.6 1305.7,392.3 1293.8,392.3C1260.3,392.3 1238.1,413.7 1238.1,451.1C1238.1,486.1 1258.2,508.6 1293,508.6C1304.2,508.6 1315.7,506.2 1323,502.8L1326.6,517.1Z" style="fill:white;fill-rule:nonzero;"/>
            <path d="M1439.3,469.6C1439.3,507.4 1412.9,524 1388.3,524C1360.7,524 1339.3,503.7 1339.3,471.3C1339.3,437 1361.8,416.9 1390.1,416.9C1419.4,417.1 1439.3,438.3 1439.3,469.6ZM1358.1,470.7C1358.1,493.2 1371.1,510 1389.2,510C1406.9,510 1420.3,493.4 1420.3,470.3C1420.3,453 1411.7,431 1389.6,431C1367.6,431.1 1358.1,451.2 1358.1,470.7Z" style="fill:white;fill-rule:nonzero;"/>
            <path d="M1462.8,446.9C1462.8,436.3 1462.6,427.7 1461.9,419.3L1478.3,419.3L1479.4,436.1L1479.8,436.1C1485,426.4 1496.6,416.9 1513.7,416.9C1528,416.9 1550,425.3 1550,460.5L1550,521.6L1531.4,521.6L1531.4,462.6C1531.4,446.2 1525.4,432.4 1507.6,432.4C1495.3,432.4 1485.8,441 1482.5,451.4C1481.6,453.8 1481.2,456.8 1481.2,460L1481.2,521.6L1462.6,521.6L1462.6,446.9L1462.8,446.9Z" style="fill:white;fill-rule:nonzero;"/>
            <path d="M1582.3,521.9L1582.3,433.8L1567.8,433.8L1567.8,419.5L1582.3,419.5L1582.3,414.5C1582.3,400 1585.5,387.1 1594.2,378.6C1601.1,371.9 1610.4,369.1 1619.3,369.1C1625.8,369.1 1631.6,370.6 1635.3,372.1L1632.7,386.6C1629.9,385.3 1626.2,384.2 1620.8,384.2C1604.8,384.2 1600.9,398.2 1600.9,413.8L1600.9,419.2L1625.7,419.2L1625.7,433.5L1600.9,433.5L1600.9,521.8L1582.3,521.9Z" style="fill:white;fill-rule:nonzero;"/>
        </g>
    </g>
    <g>
        <path d="M1256.9,676.3C1284.5,648.5 1304,626.7 1304,599.3C1304,578.2 1290.8,556.9 1261.4,556.9C1246.9,556.9 1233,562.1 1222.3,571.6L1221.7,572.1L1228.4,587.7L1229.4,586.8C1235.6,581.4 1245.5,575 1257.6,575C1280.2,575 1283.5,591.7 1283.5,601.7C1283.3,623.1 1267.3,641.4 1233.3,675.2L1218.6,690.2L1218.6,703.5L1307.3,703.5L1307.3,685.4L1247.4,685.4L1256.9,676.3Z" style="fill:white;fill-rule:nonzero;"/>
        <path d="M1372.1,556.9C1342.3,556.9 1323.9,585.6 1323.9,631.8C1324.1,654.7 1328.5,673.6 1336.7,686.5C1344.7,699.2 1356.2,705.9 1369.8,705.9C1385.2,705.9 1397.2,699.2 1405.5,686.1C1413.8,673 1418,654.1 1418,629.9C1418,583.5 1401.3,556.9 1372.1,556.9ZM1397.6,630.7C1397.6,668.2 1388.1,688.9 1370.8,688.9C1354.4,688.9 1344.2,667.1 1344.2,632.1C1344.2,596.2 1354.5,573.9 1371,573.9C1388.2,573.9 1397.6,594.1 1397.6,630.7Z" style="fill:white;fill-rule:nonzero;"/>
        <path d="M1471.2,676.3C1498.8,648.5 1518.3,626.7 1518.3,599.3C1518.3,578.2 1505.1,556.9 1475.7,556.9C1461.2,556.9 1447.3,562.1 1436.6,571.6L1436,572.1L1442.7,587.7L1443.7,586.8C1448.7,582.4 1459.1,575 1471.9,575C1494.5,575 1497.8,591.7 1497.8,601.7C1497.6,623.1 1481.6,641.4 1447.6,675.2L1432.9,690.2L1432.9,703.5L1521.6,703.5L1521.6,685.4L1461.7,685.4L1471.2,676.3Z" style="fill:white;fill-rule:nonzero;"/>
    </g>
    <defs>
        <linearGradient id="_Linear1" x1="0" y1="0" x2="1" y2="0" gradientUnits="userSpaceOnUse" gradientTransform="matrix(1705.71,691.062,-691.062,1705.71,179.482,224.062)"><stop offset="0" style="stop-color:rgb(153,153,255);stop-opacity:1"/><stop offset="0.59" style="stop-color:rgb(80,80,182);stop-opacity:1"/><stop offset="0.84" style="stop-color:rgb(59,59,161);stop-opacity:1"/><stop offset="1" style="stop-color:rgb(51,51,153);stop-opacity:1"/></linearGradient>
    </defs>
</svg>
