<?xml version="1.0" encoding="UTF-8" standalone="no"?>
<!DOCTYPE svg PUBLIC "-//W3C//DTD SVG 1.1//EN" "http://www.w3.org/Graphics/SVG/1.1/DTD/svg11.dtd">
<svg width="100%" height="100%" viewBox="0 0 744 293" version="1.1" xmlns="http://www.w3.org/2000/svg" xmlns:xlink="http://www.w3.org/1999/xlink" xml:space="preserve" xmlns:serif="http://www.serif.com/" style="fill-rule:evenodd;clip-rule:evenodd;stroke-linejoin:round;stroke-miterlimit:2;">
    <rect x="0" y="0" width="744" height="293" style="fill:url(#_Linear1);"/>
    <g>
        <g>
            <path d="M73.6,194.7C64.7,194.7 58.2,201.5 58.2,210.8C58.2,220.1 64.6,226.9 73.4,226.9C82.5,226.9 88.8,220.3 88.8,210.8C88.8,201.3 82.6,194.7 73.6,194.7Z" style="fill:white;fill-rule:nonzero;"/>
            <path d="M199.3,137.5C199.3,154.6 199.5,169.8 200.6,185.6C194.6,173.8 187.7,161.7 179.6,148.9L132.3,74.3L108,74.3L108,224.5L130.7,224.5L130.7,159.9C130.7,140.2 130.4,125.1 129.7,110.4C135.5,121.8 142.9,134.5 152.3,149.6L199.1,224.5L222,224.5L222,74.2L199.3,74.2L199.3,137.5Z" style="fill:white;fill-rule:nonzero;"/>
            <path d="M273.5,156.4L330,156.4L330,135.9L273.5,135.9L273.5,95L333.2,95L333.2,74.2L249.8,74.2L249.8,224.5L336.4,224.5L336.4,203.7L273.5,203.7L273.5,156.4Z" style="fill:white;fill-rule:nonzero;"/>
            <path d="M342.6,74.2L342.6,95.2L386.8,95.2L386.8,224.5L410.8,224.5L410.8,95.2L455.2,95.2L455.2,74.2L342.6,74.2Z" style="fill:white;fill-rule:nonzero;"/>
        </g>
        <g>
            <path d="M540.5,137.2C537.4,138.8 531.1,140.3 523.1,140.3C504.5,140.3 490.5,128.5 490.5,106.9C490.5,86.2 504.5,72.2 525,72.2C533.2,72.2 538.4,74 540.7,75.1L538.6,82.1C535.4,80.5 530.8,79.4 525.3,79.4C509.8,79.4 499.5,89.3 499.5,106.6C499.5,122.8 508.8,133.2 524.9,133.2C530.1,133.2 535.4,132.1 538.8,130.5L540.5,137.2Z" style="fill:white;fill-rule:nonzero;"/>
            <path d="M592.7,115.2C592.7,132.7 580.5,140.4 569.1,140.4C556.3,140.4 546.4,131 546.4,116C546.4,100.1 556.8,90.8 569.9,90.8C583.5,90.8 592.7,100.7 592.7,115.2ZM555.1,115.7C555.1,126.1 561.1,133.9 569.5,133.9C577.7,133.9 583.9,126.2 583.9,115.5C583.9,107.5 579.9,97.3 569.7,97.3C559.5,97.3 555.1,106.7 555.1,115.7Z" style="fill:white;fill-rule:nonzero;"/>
            <path d="M603.6,104.7C603.6,99.8 603.5,95.8 603.2,91.9L610.8,91.9L611.3,99.7L611.5,99.7C613.9,95.2 619.3,90.8 627.2,90.8C633.8,90.8 644,94.7 644,111L644,139.3L635.4,139.3L635.4,112C635.4,104.4 632.6,98 624.4,98C618.7,98 614.3,102 612.8,106.8C612.4,107.9 612.2,109.3 612.2,110.8L612.2,139.3L603.6,139.3L603.6,104.7Z" style="fill:white;fill-rule:nonzero;"/>
            <path d="M658.9,139.3L658.9,98.5L652.2,98.5L652.2,91.9L658.9,91.9L658.9,89.6C658.9,82.9 660.4,76.9 664.4,73C667.6,69.9 671.9,68.6 676,68.6C679,68.6 681.7,69.3 683.4,70L682.2,76.7C680.9,76.1 679.2,75.6 676.7,75.6C669.3,75.6 667.5,82.1 667.5,89.3L667.5,91.8L679,91.8L679,98.4L667.5,98.4L667.5,139.3L658.9,139.3Z" style="fill:white;fill-rule:nonzero;"/>
        </g>
    </g>
    <g>
        <path d="M509.7,214C522.3,201.3 531.2,191.4 531.2,178.9C531.2,169.3 525.2,159.6 511.8,159.6C505.2,159.6 498.9,162 494,166.3L493.7,166.5L496.8,173.6L497.3,173.2C500.1,170.8 504.6,167.8 510.2,167.8C520.5,167.8 522,175.4 522,180C521.9,189.8 514.6,198.1 499.1,213.6L492.4,220.4L492.4,226.5L532.9,226.5L532.9,218.2L505.6,218.2L509.7,214Z" style="fill:white;fill-rule:nonzero;"/>
        <path d="M562.2,159.5C548.6,159.5 540.2,172.6 540.2,193.7C540.3,204.1 542.3,212.8 546.1,218.7C549.8,224.5 555,227.5 561.2,227.5C568.2,227.5 573.7,224.5 577.5,218.4C581.3,212.4 583.2,203.8 583.2,192.8C583.2,171.6 575.6,159.5 562.2,159.5ZM573.9,193.2C573.9,210.3 569.6,219.7 561.7,219.7C554.2,219.7 549.6,209.8 549.6,193.8C549.6,177.4 554.3,167.3 561.8,167.3C569.6,167.3 573.9,176.5 573.9,193.2Z" style="fill:white;fill-rule:nonzero;"/>
        <path d="M607.4,214C620,201.3 628.9,191.4 628.9,178.9C628.9,169.3 622.9,159.6 609.5,159.6C602.9,159.6 596.6,162 591.7,166.3L591.4,166.5L594.5,173.6L595,173.2C597.3,171.2 602,167.8 607.9,167.8C618.2,167.8 619.7,175.4 619.7,180C619.6,189.8 612.3,198.1 596.8,213.6L590.1,220.4L590.1,226.5L630.6,226.5L630.6,218.2L603.3,218.2L607.4,214Z" style="fill:white;fill-rule:nonzero;"/>
    </g>
    <g transform="matrix(0.639086,0,0,0.639086,-37.1986,-324.596)">
        <text x="1050.73px" y="861.377px" style="font-family:'ArialMT', 'Arial', sans-serif;font-size:144px;fill:white;">5</text>
    </g>
    <defs>
        <linearGradient id="_Linear1" x1="0" y1="0" x2="1" y2="0" gradientUnits="userSpaceOnUse" gradientTransform="matrix(715.183,289.753,-289.753,715.183,44.8587,13.96)"><stop offset="0" style="stop-color:rgb(153,153,255);stop-opacity:1"/><stop offset="0.59" style="stop-color:rgb(80,80,182);stop-opacity:1"/><stop offset="0.84" style="stop-color:rgb(59,59,161);stop-opacity:1"/><stop offset="1" style="stop-color:rgb(51,51,153);stop-opacity:1"/></linearGradient>
    </defs>
</svg>
